<svg xmlns="http://www.w3.org/2000/svg" width="512" height="512" viewBox="0 0 512 512" role="img" aria-label="Qualité de l'Air">
  <defs>
    <linearGradient id="g" x1="0" y1="0" x2="1" y2="1">
      <stop offset="0%" stop-color="#3b82f6"/>
      <stop offset="100%" stop-color="#0ea5e9"/>
    </linearGradient>
    <filter id="s" x="-20%" y="-20%" width="140%" height="140%">
      <feDropShadow dx="0" dy="6" stdDeviation="10" flood-color="#0f172a" flood-opacity="0.25"/>
    </filter>
  </defs>
  <rect width="512" height="512" rx="128" fill="#0f172a"/>
  <g filter="url(#s)">
    <path fill="url(#g)" d="M112 256c0-35.3 28.7-64 64-64h144c22.1 0 40-17.9 40-40s-17.9-40-40-40c-13.3 0-24-10.7-24-24s10.7-24 24-24c49.7 0 90 40.3 90 90s-40.3 90-90 90H176c-8.8 0-16 7.2-16 16s7.2 16 16 16h120c35.3 0 64 28.7 64 64s-28.7 64-64 64H168c-22.1 0-40 17.9-40 40s17.9 40 40 40c13.3 0 24 10.7 24 24s-10.7 24-24 24c-49.7 0-90-40.3-90-90s40.3-90 90-90h128c8.8 0 16-7.2 16-16s-7.2-16-16-16H176c-35.3 0-64-28.7-64-64Z"/>
  </g>
</svg>

